<svg id="图层_1" data-name="图层 1" xmlns="http://www.w3.org/2000/svg" xmlns:xlink="http://www.w3.org/1999/xlink" viewBox="0 0 905.72 475.12"><defs><style>.cls-1{fill:#fff;}.cls-2{fill:#d2d2d2;}.cls-3{fill:#e7e7e7;}.cls-4{fill:#e4e4e4;}.cls-5{fill:#d3d3d3;}.cls-6{fill:#dfdfdf;}.cls-7{fill:#cdcdcd;}.cls-8{fill:#eee;}.cls-9{fill:#dedede;}.cls-10{fill:#e8e8e8;}.cls-11{fill:#ddd;}.cls-12{fill:url(#linear-gradient);}.cls-13{fill:#6d3300;}.cls-14{fill:url(#linear-gradient-2);}.cls-15{fill:#292929;}.cls-16{font-size:70px;font-family:AdobeFangsongStd-Regular-GBpc-EUC-H, Adobe Fangsong Std;}</style><linearGradient id="linear-gradient" x1="807.15" y1="277.92" x2="847.35" y2="322.43" gradientUnits="userSpaceOnUse"><stop offset="0" stop-color="#ffed3f"/><stop offset="0.24" stop-color="#f3cb2e"/><stop offset="0.75" stop-color="#dd870d"/><stop offset="0.98" stop-color="#d46d00"/></linearGradient><linearGradient id="linear-gradient-2" x1="751.5" y1="380.9" x2="721.31" y2="408.22" gradientUnits="userSpaceOnUse"><stop offset="0.01" stop-color="#f0f0f0"/><stop offset="0.01" stop-color="#f0f0f0"/><stop offset="0.19" stop-color="#d6d6d6"/><stop offset="0.38" stop-color="#c4c4c4"/><stop offset="0.57" stop-color="#b9b9b9"/><stop offset="0.79" stop-color="#b5b5b5"/></linearGradient></defs><title>画板 28</title><g id="_编组_" data-name="&lt;编组&gt;"><rect id="_矩形_" data-name="&lt;矩形&gt;" class="cls-1" width="876.3" height="475.12"/><g id="_编组_2" data-name="&lt;编组&gt;"><path id="_路径_" data-name="&lt;路径&gt;" class="cls-2" d="M500.08,465.28a5.48,5.48,0,0,0,2.46-.11c.06-3,1.09-5.37.76-8.56-2.31-.43-3.37-2.5-4.74-3.73-1.51,2.72,0,7.24,1.52,9.47"/><path id="_路径_2" data-name="&lt;路径&gt;" class="cls-2" d="M474.82,455a5.62,5.62,0,0,0,3.32,2.22c3.3-3.76,1.28-10.88.72-15.37-3.31,2.4-8.45,10.48-4,13.15"/><path id="_路径_3" data-name="&lt;路径&gt;" class="cls-2" d="M426.83,416.86c1.06.42,2.85.16,4.09.66.31-3.51-.61-7.14,1.67-10.09-3.71.91-10.43,3.38-7.45,8"/><path id="_路径_4" data-name="&lt;路径&gt;" class="cls-2" d="M417.58,387.5a21.8,21.8,0,0,1,5.78-.84c-.46-2.64-.82-6.44-3.89-7.89a51.2,51.2,0,0,0-2.73,5.79"/><path id="_路径_5" data-name="&lt;路径&gt;" class="cls-2" d="M362.85,425.66c1.88-.4,3.91-.6,5.81-.88a4.54,4.54,0,0,0,.79-3.42c-2.88-.25-5.16,1-8.2.77.19.91.86.87,1.6,1.33"/><path id="_路径_6" data-name="&lt;路径&gt;" class="cls-2" d="M367.06,469a1.13,1.13,0,0,0,.82,1.61c3.53-1.72,2.64-9.26-2.37-8.86a61.79,61.79,0,0,0-.13,6.51"/><path id="_路径_7" data-name="&lt;路径&gt;" class="cls-2" d="M544.69,375.76c2.34-.68,4.4-1.64,6.59-2.33a31.11,31.11,0,0,0,.91-3.39c-3.8-.93-6.46,1.48-9.94,2.22.65,1.82,2.16,3.06,4.13,2"/><path id="_路径_8" data-name="&lt;路径&gt;" class="cls-2" d="M510.18,387.5c2.51-1.37,10-4.05,11-7.09-2.44,2.93-12.31,3.71-10.54,7.83-1.17,1.06-.78.9-1.2,2.07,2.69,0,4-3.68,4.08-5.76"/><path id="_路径_9" data-name="&lt;路径&gt;" class="cls-2" d="M839.36,435.2c2.35-.13,4.13-.95,4.1-2.8-3.5.06-6-.81-9.08-.76.73,1.79,2.85,2.66,5,2.83"/><path id="_路径_10" data-name="&lt;路径&gt;" class="cls-2" d="M779.58,446.94c3.67-.58,3.11-4.38,1.47-6.53-2.8,1-6.07,3.71-1.47,5.06"/><path id="_路径_11" data-name="&lt;路径&gt;" class="cls-2" d="M683.61,441.07a57.59,57.59,0,0,0,5.74-9,3.17,3.17,0,0,0-3.05-2.63c-.88,2.41-3.84,3.4-5.11,5.56a4.8,4.8,0,0,1,2.61,3.81c1.69-.86,2.49-3.26,3.18-4.34"/><path id="_路径_12" data-name="&lt;路径&gt;" class="cls-2" d="M798.1,342.74a19.45,19.45,0,0,0,2.43-5c-2.84-1.13-8-6.61-9.9-2.53a10.45,10.45,0,0,1,5.79,5.3"/><path id="_路径_13" data-name="&lt;路径&gt;" class="cls-2" d="M786.32,413.18c2.73-1.05,7.29-2.09,7.47-5-2.12.14-4.18.92-6.5.71a10.14,10.14,0,0,0-.13,3.56"/><path id="_路径_14" data-name="&lt;路径&gt;" class="cls-3" d="M653.3,384.57c1.2-.48,7.38-2.48,7.56-4.4.32-3.34-2-1-3.4-1-4.23.09-6.87,2.62-7.39,6.05a32.57,32.57,0,0,0,4.92-1.37"/><path id="_路径_15" data-name="&lt;路径&gt;" class="cls-2" d="M740,319.26c2.45-1.05,8.85-3.84,9.46-6.51a.65.65,0,0,1,.72.36c-2-5-10,3.87-10.94,6.8a6.28,6.28,0,0,0,3.28-.64"/><path id="_路径_16" data-name="&lt;路径&gt;" class="cls-4" d="M612.05,347.14c-.64,2.31.54,4.75,1.89,6.49,4.65-2.16-4.07-10.89-7.63-11.53-.15,2.24,2.91,4.78,3.22,5.78"/><path id="_路径_17" data-name="&lt;路径&gt;" class="cls-2" d="M514.39,315.59c3.29,0,6.74.14,10-.13-.12-4.57-8.82-2.2-11.38-.81,1.37,1.21,3.55,1.22,5.59.94"/><path id="_路径_18" data-name="&lt;路径&gt;" class="cls-5" d="M680.24,306.79c3.88-2.53,8.11-5.14,10.6-8.82-.11-.21-1.35-1.91-1.51-2.08-1.9.36-3.38,1.79-5.57,2.24-.9,1.75-2.67,2.94-4.25,4.44.51,1.6.36,1.53,0,3.41a4.14,4.14,0,0,0,3.29-2.86"/><path id="_路径_19" data-name="&lt;路径&gt;" class="cls-2" d="M700.45,190.85c1.43-1,9-5.52,6.35-8.08-1.76-1.7-4.74,1.89-7,2.34,0,2,0,4.16-1.47,5.75.23.19.45.39.67.59,2.11-.74,4.56-1.36,4.86-3.54"/><path id="_路径_20" data-name="&lt;路径&gt;" class="cls-2" d="M773.69,228.27c2.51-1.73,1.77-4.77,1.54-7.21a11,11,0,0,1-4.92-2.79c-1.67,2.43,1.4,8.59,2.51,11.17.57-.63.9-.21,1.72-.44"/><path id="_路径_21" data-name="&lt;路径&gt;" class="cls-2" d="M785.48,272.3a78.43,78.43,0,0,0,8.06-5.85,3.6,3.6,0,0,0-1.33-1.6c-2.1,2.62-7.94,3.63-6.77,7.92.7-.87,1.86-1.28,2.57-1.94"/><path id="_路径_22" data-name="&lt;路径&gt;" class="cls-2" d="M874.71,220.93c.59,1-.12,1.94,1.58,1.39-1.63-3.9-1.24-7.35-1.73-11.53a6,6,0,0,0-3.91-.73,14.85,14.85,0,0,0-1.45,5c1.06,1.79,2.89,3.18,3.83,5.13"/><path id="_路径_23" data-name="&lt;路径&gt;" class="cls-2" d="M633.1,213.59c3.35-1.2,8-2,10.61-4.4-2.55-3.08-10.16,1.75-10.5,4.27,2.13.32,3.07-.07,3.26-.6"/><path id="_路径_24" data-name="&lt;路径&gt;" class="cls-2" d="M585.11,270.09c6.05-2.93,4.69-5.12,4.06-10.91a1.3,1.3,0,0,0-1.39,0c-.39,4-2.26,6.47-2.67,10.18"/><path id="_路径_25" data-name="&lt;路径&gt;" class="cls-2" d="M788.85,121.14c1.25.67,2.44.45,3.46,1.21-.25-3.77.14-7.62-.22-11.36-4.54-.69-5,9.11-2.39,10.89"/><path id="_路径_26" data-name="&lt;路径&gt;" class="cls-2" d="M836.83,86.65c3.47,1,8.8,7.09,11.73,6.47a14.12,14.12,0,0,0-1.77-2.66c-1.38-.11-2.56-.93-3.94-1,.11-3.09-.29-5-3.72-6.36a10.87,10.87,0,0,0-2.15.75c-.73,1.76-.11,2.76,1.53,3.54"/><path id="_路径_27" data-name="&lt;路径&gt;" class="cls-4" d="M814.1,71.24a74.06,74.06,0,0,0,.14,8c4.78-.08,4.14-8.72,2.22-10.8-2.93.16-2.65,2.74-2.36,5"/><path id="_路径_28" data-name="&lt;路径&gt;" class="cls-3" d="M776.22,41.89a4.53,4.53,0,0,0,2.42,3c.93-1.62,2.4-3.89,1.62-5.78-.66-1.62-3.63-1.43-4.23-3.74-3.14,1.35-.24,5.95,1,8"/><path id="_路径_29" data-name="&lt;路径&gt;" class="cls-2" d="M692.87,96.93c.81.08,18.48,2.84,16.84-1.65-1-2.83-8.55.06-11.18-1.16A10.46,10.46,0,0,1,693,95.6c1.43,1,.95,1.3,3.41,1.26.64.13.6.39-.13.79"/><path id="_路径_30" data-name="&lt;路径&gt;" class="cls-2" d="M659.2,149.75c0,2.51.79,4.18,3.23,4.29-1.11-5.32-6-10.22-7.61-15.77-4,1.84,1.91,10.56,2.69,13.68"/><path id="_路径_31" data-name="&lt;路径&gt;" class="cls-2" d="M674.34,1.53c-.44,4.69,4.26,9.87,3.2,15.34-2.48-1.49-3.62-8.74-3.35-11.54-2.09-.29-3.84-1.18-4-2.93a2.4,2.4,0,0,1,1.58-.13"/><path id="_路径_32" data-name="&lt;路径&gt;" class="cls-2" d="M857,44.82c.51,2.42,4,11,8.08,8.09C863,50.55,862.23,45,858,45.67a1.72,1.72,0,0,0-.13,1.35"/><path id="_路径_33" data-name="&lt;路径&gt;" class="cls-2" d="M397.37,69.77c1.75,2.43,8.76,5.91,11.68,6.47-2.09-2.94-4.34-4.17-7.81-5.77-.32-.14-4.51-2.28-4.73-2.25-2.36.29-2.24,2.12-.82,3Z"/><path id="_路径_34" data-name="&lt;路径&gt;" class="cls-2" d="M307.29,86.65a13,13,0,0,0-3.2,10.93A30.18,30.18,0,0,0,308,96.06c1.2-2.94,5.12-12.09-.51-12.23a16.37,16.37,0,0,0-1.85,5"/><path id="_路径_35" data-name="&lt;路径&gt;" class="cls-2" d="M452.09,124.07c.58-1.11,7.76-10.27,1.86-10.16a63.42,63.42,0,0,0-3.54,10.16"/><path id="_路径_36" data-name="&lt;路径&gt;" class="cls-2" d="M409.15,215.8c3.23-.61,5.55,1.12,8.27,1.37a8.25,8.25,0,0,0,0-4.2,8.52,8.52,0,0,1-4.94-1.27c-1.36,1.22-2.21,1.36-4.29,1.27-.61,1.36,0,2.06.94,2.83"/><path id="_路径_37" data-name="&lt;路径&gt;" class="cls-2" d="M317.39,230.47c4.87,1,6.5,3.12,11.66,1.34a3.32,3.32,0,0,0,0-2c-3.82-.31-9.64-1.71-13-.13a3.75,3.75,0,0,0,1.36,1.59c.63,0,.91-.3.84-.84Z"/><path id="_路径_38" data-name="&lt;路径&gt;" class="cls-2" d="M255.09,141.68a73,73,0,0,0,1.84,7.24,1.27,1.27,0,0,0,1.37,0c.32-2.61,1.47-7.65-3.09-7.15a7.31,7.31,0,0,0-.13,2.84Z"/><path id="_路径_39" data-name="&lt;路径&gt;" class="cls-3" d="M309.81,146.82a26.06,26.06,0,0,0-.7,9.44,1.28,1.28,0,0,0,1.37,0c1.58-3.18-.05-7.16,1.72-10-2.5-3.8-6.05-2-4.92,2Z"/><path id="_路径_40" data-name="&lt;路径&gt;" class="cls-2" d="M176,207.72c1.07-4,6.68-5.87,7.47-9.43-2-.2-2.82.38-3.43,1.94a4,4,0,0,0-3.2,3.82Z"/><path id="_路径_41" data-name="&lt;路径&gt;" class="cls-2" d="M201.21,118.2c2.76.16,14.74-3.81,7.24-5.1-3.11-.53-10.07,2.78-10.5,5.71,1.1.09,3.09-.21,2.42.12Z"/><path id="_路径_42" data-name="&lt;路径&gt;" class="cls-2" d="M114.5,91.79c4.38,0,9.39.93,13.34.62a5.91,5.91,0,0,0,0-3.45c-4.59-.18-9.48.42-14.05,0A2.07,2.07,0,0,0,114.5,91.79Z"/><path id="_路径_43" data-name="&lt;路径&gt;" class="cls-2" d="M83.35,142.42a43.94,43.94,0,0,0,8.31-5.14c-1.44-2.88-8,.71-7.47,3.67Z"/><path id="_路径_44" data-name="&lt;路径&gt;" class="cls-6" d="M0,105c2.72,3,6.17,2.83,9.79,3.57a10,10,0,0,0-.67-2.71,68.57,68.57,0,0,1-8.06-3.69,3.26,3.26,0,0,0-1,1.21,2.69,2.69,0,0,0,1.6.15Z"/><path id="_路径_45" data-name="&lt;路径&gt;" class="cls-2" d="M277.82,364.75c1.2-3.26,2.61-6.62,3.9-9.55-4.88-3-5.91,5.47-5.58,8.09Z"/><path id="_路径_46" data-name="&lt;路径&gt;" class="cls-2" d="M291.29,410.25c2.21-1.94,7.8-5.66,4.84-8.73-3.29,1.55-3.07,5-5.68,6.53Z"/><path id="_路径_47" data-name="&lt;路径&gt;" class="cls-2" d="M271.09,408c1.49,1.62,5.6,9.36,7.47,3.81-1.94-1.69-2.29-3.53-2.55-5.9-2.71-.11-4.77-1.57-7.32-1.46a5.8,5.8,0,0,0,1.56,4.29Z"/><path id="_路径_48" data-name="&lt;路径&gt;" class="cls-3" d="M342.64,408c3.36.19,10.22,1.38,12.73,2.66-.7-3.95-4.29-3.42-7.45-4.75-2.07,1.69-5.19,2.91-7.65,1.45.12,1.76,1.73,2.48,4.06,2.11Z"/><path id="_路径_49" data-name="&lt;路径&gt;" class="cls-2" d="M227.31,449.88c3.66-4.45.79-8.2,3.24-12.29a5.51,5.51,0,0,0-2.21-1.36c-.63,1-2.62,4.72-2.68,6-.12,2.59,3,5.61.81,7.65Z"/><path id="_路径_50" data-name="&lt;路径&gt;" class="cls-7" d="M161.64,449.88c3.84,0,7.85.19,11.66-.11,1.16-3.48-4.24-5.13-7.31-4.9-.09.41-.18.81-.28,1.22-2.68.2-6.06-.75-6.77,2.2a1.68,1.68,0,0,1-1.18.1,7.29,7.29,0,0,0,3.75,1.4,1.68,1.68,0,0,0,.15-1.37Z"/><path id="_路径_51" data-name="&lt;路径&gt;" class="cls-2" d="M96.82,444.74c6.17,0,10.63.54,14.82-3.67a9.29,9.29,0,0,0-1.56-1.36c-2.51.94-4.19,2.16-6.93,2.86-2.19.57-5.79-1.27-6.2,2.05,1.52.69.79-.32,1.55-.62Z"/><path id="_路径_52" data-name="&lt;路径&gt;" class="cls-2" d="M68.19,403.65a40.86,40.86,0,0,0,10.86.62,7.08,7.08,0,0,0-.91-2.72c-2.24-.15-11.06-.19-9.11,2.09Z"/><path id="_路径_53" data-name="&lt;路径&gt;" class="cls-2" d="M32,389a3.47,3.47,0,0,0,2.46.68,51.77,51.77,0,0,0-.06-5.71,19.23,19.23,0,0,0-3.07-.77,39.08,39.08,0,0,0-1,5.06Z"/><path id="_路径_54" data-name="&lt;路径&gt;" class="cls-2" d="M32,376.49c2.47.68,5.76.29,8.29-.11a3.33,3.33,0,0,0,0-2c-2.82-.55-6.16,0-5.76,2.09Z"/><path id="_路径_55" data-name="&lt;路径&gt;" class="cls-2" d="M164.17,394.11a38.4,38.4,0,0,0,7.45-5.32,7.17,7.17,0,0,0-1.54-2.68c-4.14,2-6,4.45-6.76,7.26Z"/><path id="_路径_56" data-name="&lt;路径&gt;" class="cls-3" d="M72.4,394.11c2.31-1.75,10.24-7.89,5.18-10.16,1.44,4.27-3.94,5-3.49,9.42Z"/><path id="_路径_57" data-name="&lt;路径&gt;" class="cls-2" d="M11.79,411a6.51,6.51,0,0,0,3.37.68c0-3.23-1.09-6.32-1-9.39-3.63.2-2.37,4.72-2.37,7.24Z"/><path id="_路径_58" data-name="&lt;路径&gt;" class="cls-2" d="M282.87,471.89c.21.57.43,1.14.64,1.7,2.07-1.82,5.57-3,8.48-4a3.81,3.81,0,0,0,0-2c-4.76,0-7.33,2.6-10.82,5Z"/><path id="_路径_59" data-name="&lt;路径&gt;" class="cls-2" d="M378,314.86c3.7,2.39,7.45,4,10.74,6.53,4-4.18-6.1-7.84-9.78-7.13,0,1.33.92,2.23,2.42,2.81Z"/><path id="_路径_60" data-name="&lt;路径&gt;" class="cls-2" d="M260.14,357.42a69.78,69.78,0,0,1-.82-12.25c-1,3.93-2.46,7,0,10.78Z"/><path id="_路径_61" data-name="&lt;路径&gt;" class="cls-2" d="M233.2,312.66a14.5,14.5,0,0,0,4.27-.11c.61-2.56-1.18-4.28-4.14-3.45.11,1.45-.53,2.31-1,3.56Z"/><path id="_路径_62" data-name="&lt;路径&gt;" class="cls-2" d="M287.08,297.25c2.13-1.79,7.28-4.2,6.58-7.25-2.41.75-12.55,1.46-7.21,6.4.52-.18.88-.4,1.47-.62Z"/><path id="_路径_63" data-name="&lt;路径&gt;" class="cls-4" d="M500.08,313.39a3.68,3.68,0,0,0,2.9.27c1.56-3.95,1.22-10.26-2.71-12.67-1.56,2.21-2.94,9.42-1,11.67Z"/><path id="_路径_64" data-name="&lt;路径&gt;" class="cls-3" d="M203.73,259.09a3.66,3.66,0,0,0,2.9.27c1.56-4,1.22-10.27-2.71-12.67-1.56,2.21-2.94,9.42-1,11.67Z"/><path id="_路径_65" data-name="&lt;路径&gt;" class="cls-2" d="M440.31,292.11c1.93-2.72,2.67-6,4.12-8.78a7,7,0,0,0-2.46-2,8.1,8.1,0,0,0-1.66,7.81Z"/><path id="_路径_66" data-name="&lt;路径&gt;" class="cls-2" d="M390.63,251.75c3.84,0,7.86.2,11.66-.11,1.52-5.55-11.45-2.09-10,.11Z"/><path id="_路径_67" data-name="&lt;路径&gt;" class="cls-2" d="M570.8,342.74c2.06-4.92,4.51-10.18-.68-13.87-1.18,3.82,4.61,9.23.59,13.61,1.25-1.61.86-3-.75-4.14Z"/><path id="_路径_68" data-name="&lt;路径&gt;" class="cls-2" d="M628,408.78c3-3.47,13.41-9.61,9.45-14.62-.6,5.37-5.05,7-6.92,11.69Z"/><path id="_路径_69" data-name="&lt;路径&gt;" class="cls-2" d="M602.79,207.72c2.44,0,4.46.41,6.38-.72-.49-5.08-3.15-2.43-7.09-2.84a18.35,18.35,0,0,0-.89,3.37,5,5,0,0,0,3.29.92Z"/><path id="_路径_70" data-name="&lt;路径&gt;" class="cls-2" d="M545.54,187.91c2.23-1.89,4.88-3.68,6.65-5.72-3-.48-5.22,2.61-6.65,4.26Z"/><path id="_路径_71" data-name="&lt;路径&gt;" class="cls-2" d="M503.45,116c1.64,3.18,3.14,7.12,7.45,7.23,0-2.3-5.55-8.4-8.17-7.84a10.83,10.83,0,0,0,.89,4.95,15.36,15.36,0,0,0,1.51-.66Z"/><path id="_路径_72" data-name="&lt;路径&gt;" class="cls-2" d="M340.12,124.81c4-1.5,7.94-2.3,11.45-4.41-1.95-2.57-8.38.65-10.48,2.39a14.22,14.22,0,0,0,.71,1.28Z"/><path id="_路径_73" data-name="&lt;路径&gt;" class="cls-8" d="M454.61,63.9a6.74,6.74,0,0,0,4.14.62A9.32,9.32,0,0,0,457,61.09c-3.19.07-5-2.72-5.05-5.17-2,.24-3,1.84-4,3.39,2.37.5,5.2,1.53,3.64,3.87,1.14,1.1,1.76.61,3,0Z"/><path id="_路径_74" data-name="&lt;路径&gt;" class="cls-8" d="M409.15,37.48c2.06.48,4.72-.34,6.61-.84.67-4.37-3.43-1.59-6.31-2.13,1.74.91.81,1.61,1.38,3Z"/><path id="_路径_75" data-name="&lt;路径&gt;" class="cls-2" d="M276.14,48.49c-.43-2.65-.8-5.34-1-8a6.68,6.68,0,0,0-3.13,0c.36,2.25,2.58,3.88,2.42,6.48Z"/><path id="_路径_76" data-name="&lt;路径&gt;" class="cls-2" d="M267.72,19.87c4.11,0,8.43.23,12.5-.11a6,6,0,0,0,0-3.45c-3-.12-3.86-1.23-6.59-.84-2.44.35-5.66,2-4.94,4.29a9.76,9.76,0,0,0,3.24.11Z"/><path id="_路径_77" data-name="&lt;路径&gt;" class="cls-5" d="M474.82,14.65c3.71-1.53,7.73-2.93,11.24-4.75a6.48,6.48,0,0,0-1.68-3.12c-2.74,1-4.1.32-6.37,1.69-2,1.22-4.14,3.9-2.37,5.71a9.14,9.14,0,0,0,3-1.1Z"/><path id="_路径_78" data-name="&lt;路径&gt;" class="cls-5" d="M20.2,459.33c3.71-1.53,7.73-2.93,11.25-4.75a6.5,6.5,0,0,0-1.68-3.12c-2.75,1-4.1.32-6.38,1.7-2,1.23-4.14,3.9-2.36,5.71a9.28,9.28,0,0,0,3-1.1Z"/><path id="_路径_79" data-name="&lt;路径&gt;" class="cls-2" d="M621.31,97.66a7.93,7.93,0,0,0,3.92,1.55c-1.14-2.09-3.13-3.06-5.48-3.88.31-2.48-1.35-4.22-2.67-6.26-2.59,4.34,1.53,7,5.07,9.32Z"/><path id="_路径_80" data-name="&lt;路径&gt;" class="cls-9" d="M772.85,338.34c.62-2.34,3.37-10.45.17-11.67-.41,3.09-1.59,7.18-1,10.2Z"/><path id="_路径_81" data-name="&lt;路径&gt;" class="cls-3" d="M806.32,374.07c4.75-1.92,17.53-6.66,16.25-10.48-5.56.5-8.46,3.75-14.08,4.87-.41,1.05-.87,2.6-.33,3.69Z"/><path id="_路径_82" data-name="&lt;路径&gt;" class="cls-2" d="M687,417.59c5.27,1.11,8.85,3.66,13.32,5.8.64-7-7.87-4.5-12.35-6.46a3.9,3.9,0,0,0,0,2,10.31,10.31,0,0,0,3.24.11Z"/><path id="_路径_83" data-name="&lt;路径&gt;" class="cls-3" d="M463.88,412.45a73.55,73.55,0,0,1,11.64,2.86c-.05-1.52-.36-3.83-1.77-4.89-2.4-1.79-2.42-.32-3.9-.46-.43,0-4.79-.39-4.86-.35-2.18,1.4-.59,2.62,1.41,2.83Z"/><path id="_路径_84" data-name="&lt;路径&gt;" class="cls-3" d="M615.41,446.21A73.86,73.86,0,0,1,627,449.07c-.05-1.52-.35-3.84-1.76-4.89-2.4-1.79-2.42-.32-3.89-.45-.44,0-4.8-.39-4.86-.35-2.18,1.4-.59,2.61,1.41,2.83Z"/><path id="_路径_85" data-name="&lt;路径&gt;" class="cls-2" d="M358.64,360.35c3.35-2.45,6.65-4,2.53-7.26-2.53.84-2.91,3.55-2.53,5.79Z"/><path id="_路径_86" data-name="&lt;路径&gt;" class="cls-2" d="M141.44,336.14c-.08,2.87,0,8.74,4.91,7.23,0-4.18-3-5.09-4.91-8.48-1.25,1.55-.87,2.42,0,3.45Z"/><path id="_路径_87" data-name="&lt;路径&gt;" class="cls-2" d="M170.06,309c-.38,2.81.31,7.66,1.83,10.14a5.6,5.6,0,0,0,2.26,0c.21-2.35,1-6.42.14-8.67-.91-2.48-3.79-3.65-4.41-6.55a10.86,10.86,0,0,0-2.19.79c-.57,2.24,1,3.75,1.54,5.74Z"/><path id="_路径_88" data-name="&lt;路径&gt;" class="cls-2" d="M80.82,231.94c3.81-.21,7.2,1.21,10.86.58-.95-3.87-12.38-5.49-13.27-1.46,1.86.71,6.87.64,5.78.88Z"/><path id="_路径_89" data-name="&lt;路径&gt;" class="cls-2" d="M34.52,256.89a17,17,0,0,0,4.95,1.33,6.72,6.72,0,0,1-.87-4.16c-3.14-.95-4.2,1.39-4.92,3.56Z"/><path id="_路径_90" data-name="&lt;路径&gt;" class="cls-2" d="M159.12,69.77c0,3.44,1.26,6.88,1,10.18,4.8.38,1.77-8.23,1.41-11.52a6.14,6.14,0,0,0-3.07-.77,9.85,9.85,0,0,0-.15,3.57Z"/><path id="_路径_91" data-name="&lt;路径&gt;" class="cls-10" d="M565.38,31.3a13.15,13.15,0,0,0,5.88,2.63,3.75,3.75,0,0,0,1.07-1.75A90.42,90.42,0,0,0,559.21,26a34.16,34.16,0,0,0-2.63,2.64,82,82,0,0,0,8,3.91Z"/><path id="_路径_92" data-name="&lt;路径&gt;" class="cls-10" d="M29.95,318.95a13.18,13.18,0,0,0,5.88,2.62,3.7,3.7,0,0,0,1.07-1.75,90.24,90.24,0,0,0-13.13-6.13,31.36,31.36,0,0,0-2.63,2.64,79.73,79.73,0,0,0,8,3.91Z"/><path id="_路径_93" data-name="&lt;路径&gt;" class="cls-4" d="M78,110.23c4.11.86,14.21,3.89,18.21,1.4a5.07,5.07,0,0,0-1.92-2.15c-4.24,3.47-7.68-1.12-12.09.67Z"/><path id="_路径_94" data-name="&lt;路径&gt;" class="cls-11" d="M20.72,199.75c4.11.86,14.21,3.89,18.21,1.4A5.05,5.05,0,0,0,37,199c-4.24,3.47-7.68-1.11-12.08.68Z"/><path id="_路径_95" data-name="&lt;路径&gt;" class="cls-11" d="M477,202.68c4.11.86,14.2,3.89,18.21,1.4a5,5,0,0,0-1.92-2.16c-4.24,3.47-7.67-1.11-12.08.68Z"/><path id="_路径_96" data-name="&lt;路径&gt;" class="cls-4" d="M87.56,301.65c3.32-2.28,12.29-7.32,12.52-11.61a6.42,6.42,0,0,0-3.13,0c.51,5.05-5.75,4.57-6.87,8.7Z"/><path id="_路径_97" data-name="&lt;路径&gt;" class="cls-2" d="M22.73,41.16c.36,2.28,1.52,4.3,1.82,6.51a1.31,1.31,0,0,0,1.4,0c-.05-3.25-1.08-8.45-6.33-7.24a7.21,7.21,0,0,1,4.79.74Z"/><path id="_路径_98" data-name="&lt;路径&gt;" class="cls-2" d="M183.53,28.68c-3.24-3.85-5.36-8-8.61-11.44-3.16,1.5,4,8.61,6.08,10Z"/><path id="_路径_99" data-name="&lt;路径&gt;" class="cls-2" d="M243.31,35.28c1-1.79,1.82-3.36,1.57-5.07a6.5,6.5,0,0,1-1.43-.19c-.37-3.76,1-6.58-.31-9.91-2.78,2.39-2.7,10.08-.68,13Z"/><path id="_路径_100" data-name="&lt;路径&gt;" class="cls-3" d="M78.29,25c1-1.79,1.82-3.36,1.57-5.07a6.38,6.38,0,0,1-1.43-.2c-.37-3.76,1-6.58-.31-9.91-2.78,2.39-2.69,10.08-.67,13Z"/><path id="_路径_101" data-name="&lt;路径&gt;" class="cls-2" d="M207.95,152c1.7.34,3.06.18,4.07-.92-1.69-1.91-1-5.29-3.95-5.57a20.76,20.76,0,0,1,.71,5.75Z"/><path id="_路径_102" data-name="&lt;路径&gt;" class="cls-2" d="M318.23,278.17c2.39-.25,4.36.62,6.62.6-.52-1.79-.15-4.92-3.09-4.89-.47,2.08-2.31,2.63-4.17,1.47a2.51,2.51,0,0,0-1.05,2.82Z"/><path id="_路径_103" data-name="&lt;路径&gt;" class="cls-2" d="M121.23,391.17c-2.44-4.88-3.05-14.86-10.84-14.8a.91.91,0,0,1,0-1.22,37.49,37.49,0,0,1,3.89-.75c4,2.48,4.42,9.08,4.42,13.1Z"/><path id="_路径_104" data-name="&lt;路径&gt;" class="cls-2" d="M438.63,98.39a28.32,28.32,0,0,0,7.43.62c.79-3.72-8.08-6.86-9.85-3a5.92,5.92,0,0,1,4.1,2.36Z"/></g></g><g id="_编组_3" data-name="&lt;编组&gt;"><path id="_路径_105" data-name="&lt;路径&gt;" class="cls-12" d="M741.26,373.32,890.51,214s5-3.59,12.93,2.15a8.13,8.13,0,0,1,1.43,9.33l-144,162.35Z"/><path id="_路径_106" data-name="&lt;路径&gt;" class="cls-13" d="M760.85,387.87c-2.08,2.8-8.14,1.82-13.56-2.21s-8.11-9.53-6-12.34,8.15-1.82,13.57,2.2S762.93,385.08,760.85,387.87Z"/><path id="_路径_107" data-name="&lt;路径&gt;" class="cls-14" d="M749.83,377s-6.45-5.74-12.92,4.31c0,0-30.86,42.34-32.3,48.8,0,0,41.3-27.25,50.25-39.46C754.85,390.62,762,383.44,749.83,377Z"/><path id="_路径_108" data-name="&lt;路径&gt;" class="cls-15" d="M726.86,396.35S701,426.49,698.15,438c0,0-3.59,7.89,2.87,2.16,0,0,3.6-12.21,32.3-29.43,0,0,7.89-7.18,2.16-12.92C735.48,397.78,730.45,391.33,726.86,396.35Z"/><path id="_路径_109" data-name="&lt;路径&gt;" class="cls-15" d="M710.39,453.07c0,2-3.55,3.58-7.91,3.58s-7.91-1.6-7.91-3.58,3.54-3.58,7.91-3.58S710.39,451.1,710.39,453.07Z"/><ellipse id="_路径_110" data-name="&lt;路径&gt;" class="cls-15" cx="737.65" cy="457.02" rx="13.86" ry="6.26"/></g><text class="cls-16" transform="translate(119.97 176.43)">九九重阳，<tspan x="0" y="84">为亲友佩一株茱萸，</tspan><tspan x="0" y="168">送一句祝福。</tspan></text></svg>